{
    "asset" : {
        "generator" : "Khronos glTF Blender I/O v3.3.32",
        "version" : "2.0"
    },
    "extensionsUsed" : [
        "KHR_materials_specular",
        "KHR_materials_ior"
    ],
    "scene" : 0,
    "scenes" : [
        {
            "name" : "Scene",
            "nodes" : [
                27
            ]
        }
    ],
    "nodes" : [
        {
            "name" : "Bip01 HeadNub",
            "rotation" : [
                -3.5413449950283393e-11,
                -1.0885515579206473e-11,
                1.5085845461726421e-07,
                1
            ],
            "scale" : [
                1,
                1,
                0.9999999403953552
            ],
            "translation" : [
                0.2314291149377823,
                1.0949082707156776e-07,
                -5.8370857004774734e-05
            ]
        },
        {
            "name" : "lbrow2",
            "rotation" : [
                0.00015872588846832514,
                1.2064100701536518e-05,
                0.6728278398513794,
                0.7397991418838501
            ],
            "scale" : [
                0.9999998807907104,
                0.9999998807907104,
                0.9999999403953552
            ],
            "translation" : [
                0.07850861549377441,
                0.0658174455165863,
                0.027232903987169266
            ]
        },
        {
            "name" : "llid",
            "rotation" : [
                7.379738235613331e-05,
                0.00010403723717899993,
                0.6193695664405823,
                0.7850996255874634
            ],
            "scale" : [
                0.9999997615814209,
                0.9999998807907104,
                0.9999998807907104
            ],
            "translation" : [
                0.060512058436870575,
                0.0482037290930748,
                0.03062424063682556
            ]
        },
        {
            "name" : "rlid",
            "rotation" : [
                -6.328052404569462e-05,
                0.00027429740293882787,
                0.6300479769706726,
                0.7765563130378723
            ],
            "scale" : [
                0.9999998211860657,
                0.9999998807907104,
                0.9999998807907104
            ],
            "translation" : [
                0.060518354177474976,
                0.04847161844372749,
                -0.029700467362999916
            ]
        },
        {
            "name" : "lbrow1",
            "rotation" : [
                0.06963766366243362,
                -0.07793528586626053,
                0.6617552042007446,
                0.7423993349075317
            ],
            "scale" : [
                0.9999998807907104,
                0.9999998807907104,
                0.9999998807907104
            ],
            "translation" : [
                0.07154451310634613,
                0.047928329557180405,
                0.039099059998989105
            ]
        },
        {
            "name" : "rbrow1",
            "rotation" : [
                -0.06364111602306366,
                0.07168666273355484,
                0.6618120670318604,
                0.7435157895088196
            ],
            "scale" : [
                0.9999999403953552,
                1,
                0.9999999403953552
            ],
            "translation" : [
                0.07111609727144241,
                0.04759443923830986,
                -0.03996724635362625
            ]
        },
        {
            "name" : "rbrow2",
            "rotation" : [
                8.984417945612222e-05,
                8.822268137009814e-05,
                0.6824522614479065,
                0.7309302091598511
            ],
            "scale" : [
                0.9999999403953552,
                0.9999999403953552,
                0.9999999403953552
            ],
            "translation" : [
                0.078536257147789,
                0.06352405995130539,
                -0.026731112971901894
            ]
        },
        {
            "name" : "llip01",
            "rotation" : [
                -2.944700281659607e-05,
                -2.4006649255170487e-06,
                -0.3287891447544098,
                0.944403350353241
            ],
            "scale" : [
                0.9999999403953552,
                1,
                1
            ],
            "translation" : [
                0.04908020421862602,
                -0.006349790375679731,
                -0.0002655861317180097
            ]
        },
        {
            "children" : [
                7
            ],
            "name" : "llip",
            "rotation" : [
                0.0003005127946380526,
                -0.0016670847544446588,
                -0.0010952720185741782,
                0.9999979734420776
            ],
            "translation" : [
                0.02913314662873745,
                -0.0005119157140143216,
                0.0002284615475218743
            ]
        },
        {
            "children" : [
                8
            ],
            "name" : "jaw2",
            "rotation" : [
                1.4528818610415328e-05,
                -3.457650382188149e-05,
                -0.5774721503257751,
                0.8164104223251343
            ],
            "scale" : [
                0.9999999403953552,
                1,
                1.0000001192092896
            ],
            "translation" : [
                0.03215403854846954,
                3.0013629839231726e-06,
                2.1711668978241505e-06
            ]
        },
        {
            "children" : [
                9
            ],
            "name" : "jaw1",
            "rotation" : [
                0.00012028590572299436,
                2.822790338541381e-05,
                0.978867769241333,
                0.20449422299861908
            ],
            "scale" : [
                0.9999997019767761,
                0.9999998807907104,
                0.9999998807907104
            ],
            "translation" : [
                0.016745537519454956,
                0.014025716111063957,
                -0.000517094973474741
            ]
        },
        {
            "name" : "rtlip3",
            "rotation" : [
                -2.214685082435608e-06,
                3.073364496231079e-08,
                5.35510537247319e-07,
                1
            ],
            "scale" : [
                0.9999999403953552,
                0.9999999403953552,
                1
            ],
            "translation" : [
                0.014109485782682896,
                -6.757909432053566e-07,
                -4.6566128730773926e-09
            ]
        },
        {
            "children" : [
                11
            ],
            "name" : "rtlip2",
            "rotation" : [
                7.777049177093431e-05,
                5.614293331746012e-05,
                0.4799436628818512,
                0.8772993087768555
            ],
            "scale" : [
                0.9999999403953552,
                0.9999999403953552,
                1
            ],
            "translation" : [
                0.035121314227581024,
                3.548848326317966e-08,
                2.300366759300232e-07
            ]
        },
        {
            "children" : [
                12
            ],
            "name" : "rtlip1",
            "rotation" : [
                -0.08348998427391052,
                0.07641415297985077,
                0.7444356679916382,
                0.6580318808555603
            ],
            "scale" : [
                0.9999999403953552,
                0.9999997615814209,
                0.9999999403953552
            ],
            "translation" : [
                0.036133889108896255,
                0.06961195915937424,
                -0.0004940078360959888
            ]
        },
        {
            "name" : "ltlip3",
            "rotation" : [
                1.1408702249582348e-07,
                -1.4062970876693726e-07,
                -2.0954759705205106e-08,
                1
            ],
            "scale" : [
                1,
                0.9999999403953552,
                1
            ],
            "translation" : [
                0.013537721708416939,
                4.132743924856186e-07,
                -2.3515895009040833e-08
            ]
        },
        {
            "children" : [
                14
            ],
            "name" : "ltlip2",
            "rotation" : [
                -3.2608563742542174e-06,
                -1.2365533166303067e-06,
                0.5049965977668762,
                0.8631213903427124
            ],
            "scale" : [
                1.0000001192092896,
                1,
                1
            ],
            "translation" : [
                0.0352468341588974,
                -8.155257091857493e-08,
                -4.842877388000488e-08
            ]
        },
        {
            "children" : [
                15
            ],
            "name" : "ltlip1",
            "rotation" : [
                0.08103407919406891,
                -0.07271312922239304,
                0.7494946718215942,
                0.6529961824417114
            ],
            "scale" : [
                0.9999998211860657,
                1,
                0.9999999403953552
            ],
            "translation" : [
                0.036996785551309586,
                0.07038795948028564,
                0.001696303952485323
            ]
        },
        {
            "name" : "leye",
            "rotation" : [
                0.0015626723179593682,
                -0.0015415216330438852,
                0.6805424094200134,
                0.7327054142951965
            ],
            "scale" : [
                0.9999997615814209,
                0.9999998807907104,
                0.9999998211860657
            ],
            "translation" : [
                0.06703124195337296,
                0.06941306591033936,
                0.028638765215873718
            ]
        },
        {
            "name" : "reye",
            "rotation" : [
                -0.0018101604655385017,
                0.0021902546286582947,
                0.6805417537689209,
                0.7327038049697876
            ],
            "scale" : [
                1,
                0.9999999403953552,
                0.9999998807907104
            ],
            "translation" : [
                0.06701714545488358,
                0.06941317021846771,
                -0.027688633650541306
            ]
        },
        {
            "name" : "lcheek",
            "rotation" : [
                9.416151442565024e-05,
                8.355211321031675e-05,
                0.6836801767349243,
                0.7297817468643188
            ],
            "scale" : [
                1.0000001192092896,
                1,
                0.9999999403953552
            ],
            "translation" : [
                0.04850664734840393,
                0.040858615189790726,
                0.03180575370788574
            ]
        },
        {
            "name" : "rcheek",
            "rotation" : [
                8.484320278512314e-05,
                9.362764831166714e-05,
                0.680176317691803,
                0.7330485582351685
            ],
            "scale" : [
                0.9999998807907104,
                0.9999998807907104,
                0.9999998807907104
            ],
            "translation" : [
                0.048095833510160446,
                0.038326721638441086,
                -0.03166244551539421
            ]
        },
        {
            "name" : "lcorner",
            "rotation" : [
                0.3022546172142029,
                -0.277223140001297,
                0.5935243964195251,
                0.6924726366996765
            ],
            "scale" : [
                0.9999999403953552,
                1,
                0.9999998211860657
            ],
            "translation" : [
                0.0008073827484622598,
                0.06473881751298904,
                -0.01092420145869255
            ]
        },
        {
            "name" : "rcorner",
            "rotation" : [
                -0.32262954115867615,
                0.22575199604034424,
                0.5925965905189514,
                0.7026916146278381
            ],
            "scale" : [
                0.9999999403953552,
                1,
                1
            ],
            "translation" : [
                -0.0014333162689581513,
                0.06375451385974884,
                0.008906958624720573
            ]
        },
        {
            "children" : [
                0,
                1,
                2,
                3,
                4,
                5,
                6,
                10,
                13,
                16,
                17,
                18,
                19,
                20,
                21,
                22
            ],
            "name" : "Head",
            "rotation" : [
                -4.281119254301302e-05,
                -5.6614671848365106e-06,
                -0.17404110729694366,
                0.9847384095191956
            ],
            "scale" : [
                1.0000001192092896,
                1,
                1
            ],
            "translation" : [
                0.1583116054534912,
                -5.58230475178334e-08,
                -3.7953876017127186e-05
            ]
        },
        {
            "children" : [
                23
            ],
            "name" : "Neck",
            "rotation" : [
                0.1533380001783371,
                0.6902015805244446,
                0.15330323576927185,
                0.6903675198554993
            ],
            "scale" : [
                0.9999999403953552,
                0.9999998807907104,
                0.9999997615814209
            ],
            "translation" : [
                0.0012117611477151513,
                -0.08478504419326782,
                0.01934593915939331
            ]
        },
        {
            "name" : "neutral_bone",
            "rotation" : [
                -0.7071068286895752,
                0,
                0,
                0.7071068286895752
            ]
        },
        {
            "children" : [
                24,
                25
            ],
            "name" : "Root.001"
        },
        {
            "children" : [
                26
            ],
            "mesh" : 0,
            "name" : "Root",
            "skin" : 0
        }
    ],
    "materials" : [
        {
            "alphaCutoff" : 0.5,
            "alphaMode" : "MASK",
            "doubleSided" : true,
            "extensions" : {
                "KHR_materials_specular" : {
                    "specularColorFactor" : [
                        0.118567882488869,
                        0.118567882488869,
                        0.118567882488869
                    ]
                },
                "KHR_materials_ior" : {
                    "ior" : 1.4500000476837158
                }
            },
            "name" : "Root.0",
            "pbrMetallicRoughness" : {
                "baseColorTexture" : {
                    "index" : 0
                },
                "metallicFactor" : 0
            }
        }
    ],
    "meshes" : [
        {
            "name" : "Root",
            "primitives" : [
                {
                    "attributes" : {
                        "POSITION" : 0,
                        "NORMAL" : 1,
                        "TEXCOORD_0" : 2,
                        "JOINTS_0" : 3,
                        "WEIGHTS_0" : 4
                    },
                    "indices" : 5,
                    "material" : 0
                }
            ]
        }
    ],
    "textures" : [
        {
            "sampler" : 0,
            "source" : 0
        }
    ],
    "images" : [
        {
            "mimeType" : "image/png",
            "name" : "CSplay",
            "uri" : "CSplay.png"
        }
    ],
    "skins" : [
        {
            "inverseBindMatrices" : 6,
            "joints" : [
                24,
                23,
                0,
                1,
                2,
                3,
                4,
                5,
                6,
                10,
                9,
                8,
                7,
                13,
                12,
                11,
                16,
                15,
                14,
                17,
                18,
                19,
                20,
                21,
                22,
                25
            ],
            "name" : "Root.001"
        }
    ],
    "accessors" : [
        {
            "bufferView" : 0,
            "componentType" : 5126,
            "count" : 815,
            "max" : [
                0.08457548171281815,
                0.3079276382923126,
                0.10962119698524475
            ],
            "min" : [
                -0.08172942698001862,
                0.029574813321232796,
                -0.10495270788669586
            ],
            "type" : "VEC3"
        },
        {
            "bufferView" : 1,
            "componentType" : 5126,
            "count" : 815,
            "type" : "VEC3"
        },
        {
            "bufferView" : 2,
            "componentType" : 5126,
            "count" : 815,
            "type" : "VEC2"
        },
        {
            "bufferView" : 3,
            "componentType" : 5121,
            "count" : 815,
            "type" : "VEC4"
        },
        {
            "bufferView" : 4,
            "componentType" : 5126,
            "count" : 815,
            "type" : "VEC4"
        },
        {
            "bufferView" : 5,
            "componentType" : 5123,
            "count" : 3426,
            "type" : "SCALAR"
        },
        {
            "bufferView" : 6,
            "componentType" : 5126,
            "count" : 26,
            "type" : "MAT4"
        }
    ],
    "bufferViews" : [
        {
            "buffer" : 0,
            "byteLength" : 9780,
            "byteOffset" : 0,
            "target" : 34962
        },
        {
            "buffer" : 0,
            "byteLength" : 9780,
            "byteOffset" : 9780,
            "target" : 34962
        },
        {
            "buffer" : 0,
            "byteLength" : 6520,
            "byteOffset" : 19560,
            "target" : 34962
        },
        {
            "buffer" : 0,
            "byteLength" : 3260,
            "byteOffset" : 26080,
            "target" : 34962
        },
        {
            "buffer" : 0,
            "byteLength" : 13040,
            "byteOffset" : 29340,
            "target" : 34962
        },
        {
            "buffer" : 0,
            "byteLength" : 6852,
            "byteOffset" : 42380,
            "target" : 34963
        },
        {
            "buffer" : 0,
            "byteLength" : 1664,
            "byteOffset" : 49232
        }
    ],
    "samplers" : [
        {
            "magFilter" : 9729,
            "minFilter" : 9987
        }
    ],
    "buffers" : [
        {
            "byteLength" : 50896,
            "uri" : "face.bin"
        }
    ]
}
